<?xml version="1.0" encoding="utf-8"?>
<!-- Generator: Adobe Illustrator 22.0.1, SVG Export Plug-In . SVG Version: 6.00 Build 0)  -->
<svg version="1.1" id="Layer_1" xmlns="http://www.w3.org/2000/svg" xmlns:xlink="http://www.w3.org/1999/xlink" x="0px" y="0px"
	 viewBox="0 0 65.7 78" style="enable-background:new 0 0 65.7 78;" xml:space="preserve">
<style type="text/css">
	.st0{fill:#D8D8D8;}
</style>
<title>Delete 2.4</title>
<g>
	<g>
		<path class="st0" d="M53.8,16.6l-1.9,50c0,0.9-0.8,1.6-1.6,1.6h-32c-0.9,0-1.6-0.7-1.6-1.6l-1.9-50c-0.1-1.4-1.2-2.5-2.6-2.4
			s-2.5,1.2-2.4,2.6l1.9,50c0.1,3.5,3.1,6.4,6.6,6.4h32c3.5,0,6.5-2.9,6.6-6.4l1.9-50c0.1-1.4-1-2.5-2.4-2.6S53.9,15.3,53.8,16.6z"
			/>
		<path class="st0" d="M32.3,26.7v34c0,1.1,0.9,2,2,2s2-0.9,2-2v-34c0-1.1-0.9-2-2-2S32.3,25.6,32.3,26.7z"/>
		<path class="st0" d="M21.3,26.8l1,34c0,1.1,1,2,2.1,1.9c1.1,0,2-1,1.9-2.1l-1-34c0-1.1-1-2-2.1-1.9C22.2,24.8,21.3,25.7,21.3,26.8
			z"/>
		<path class="st0" d="M43.3,26.7l-1,34c0,1.1,0.8,2,1.9,2.1c1.1,0,2-0.8,2.1-1.9l1-34c0-1.1-0.8-2-1.9-2.1
			C44.3,24.7,43.4,25.6,43.3,26.7z"/>
		<path class="st0" d="M9.3,17.7h50c1.4,0,2.5-1.1,2.5-2.5s-1.1-2.5-2.5-2.5h-50c-1.4,0-2.5,1.1-2.5,2.5S7.9,17.7,9.3,17.7z"/>
		<path class="st0" d="M26.7,14.4l1-3.6c0.2-0.8,1.2-1.5,2-1.5h9c0.8,0,1.8,0.8,2,1.5l1,3.6l4.8-1.4l-1-3.6
			c-0.8-2.9-3.8-5.2-6.9-5.2h-9c-3,0-6,2.2-6.9,5.2l-1,3.6L26.7,14.4z"/>
	</g>
</g>
</svg>
